<svg id="counsel" xmlns="http://www.w3.org/2000/svg" width="90.5" height="90.5" viewBox="0 0 90.5 90.5">
  <path id="Path_4" data-name="Path 4" d="M176,132.067A12.067,12.067,0,1,0,188.067,120,12.066,12.066,0,0,0,176,132.067Zm21.117,0a9.05,9.05,0,1,1-9.05-9.05A9.05,9.05,0,0,1,197.117,132.067Zm0,0" transform="translate(-142.817 -97.375)" fill="#4972ff"/>
  <path id="Path_5" data-name="Path 5" d="M334.167,0h-27.15A3.017,3.017,0,0,0,304,3.017V18.1a3.017,3.017,0,0,0,3.017,3.017h.206L304.205,26.4a1.508,1.508,0,0,0,2.057,2.057l12.579-7.336h15.325a3.017,3.017,0,0,0,3.017-3.017V3.017A3.017,3.017,0,0,0,334.167,0Zm0,18.1H318.434a1.5,1.5,0,0,0-.754.205l-8.059,4.7,1.51-2.644a1.508,1.508,0,0,0-1.309-2.262h-2.805V3.017h27.15Zm0,0" transform="translate(-246.683)" fill="#4972ff"/>
  <path id="Path_6" data-name="Path 6" d="M27.9,60.453A1.508,1.508,0,0,0,29.968,58.4l-3.017-5.279H28.99a1.183,1.183,0,0,0,1.176-1.183v-14.3a1.493,1.493,0,0,0,.105.578,1.523,1.523,0,0,0,1.4.95,1.565,1.565,0,0,0,.573-.121A34.519,34.519,0,0,1,40.6,36.827a36.567,36.567,0,0,1,4.646-.3h1.161a1.462,1.462,0,0,0,1.508-1.448,1.43,1.43,0,0,0-.407-1.071,1.473,1.473,0,0,0-1.041-.483c-1.916-.075-4.163.046-6.229-.015H40.2a64.55,64.55,0,0,0-9.08,2.745,1.468,1.468,0,0,0-.829.815,1.558,1.558,0,0,0-.121.566V33.183A1.183,1.183,0,0,0,28.984,32H1.183A1.183,1.183,0,0,0,0,33.183V51.934a1.183,1.183,0,0,0,1.183,1.183H15.325ZM3.017,35.017H27.15V50.1H24.345a1.508,1.508,0,0,0-1.309,2.262l1.516,2.648-8.059-4.7a1.5,1.5,0,0,0-.754-.205H3.017Zm0,0" transform="translate(0 -25.967)" fill="#4972ff"/>
  <path id="Path_7" data-name="Path 7" d="M161.642,256H149.575A13.591,13.591,0,0,0,136,269.575v25.642a3.017,3.017,0,0,0,3.017,3.017H172.2a3.017,3.017,0,0,0,3.017-3.017V269.575A13.591,13.591,0,0,0,161.642,256ZM172.2,295.217H139.017V269.575a10.57,10.57,0,0,1,10.558-10.558h12.067A10.57,10.57,0,0,1,172.2,269.575Zm0,0" transform="translate(-110.358 -207.733)" fill="#4972ff"/>
  <path id="Path_8" data-name="Path 8" d="M256,160h3.017v3.017H256Zm0,0" transform="translate(-207.733 -129.833)" fill="#4972ff"/>
  <path id="Path_9" data-name="Path 9" d="M208,160h3.017v3.017H208Zm0,0" transform="translate(-168.783 -129.833)" fill="#4972ff"/>
  <path id="Path_10" data-name="Path 10" d="M72.594,334.821a34.393,34.393,0,0,1-3.333-4.705,1.551,1.551,0,0,0-2.067-.544,1.524,1.524,0,0,0-.543,2.067A38.125,38.125,0,0,0,77.18,343.162a1.509,1.509,0,1,0,1.75-2.458,35.007,35.007,0,0,1-6.335-5.883Zm0,0" transform="translate(-53.921 -267.278)" fill="#4972ff"/>
  <path id="Path_11" data-name="Path 11" d="M41.828,177a1.533,1.533,0,0,0-1.9.995,37.859,37.859,0,0,0-1.357,6.124v.106a36.289,36.289,0,0,0-.332,4.977,37.961,37.961,0,0,0,.242,4.329,1.508,1.508,0,0,0,1.508,1.327h.166a1.52,1.52,0,0,0,1.328-1.674,35.093,35.093,0,0,1-.227-3.982,34.476,34.476,0,0,1,.317-4.676,35.243,35.243,0,0,1,1.237-5.641,1.508,1.508,0,0,0-.98-1.885Zm0,0" transform="translate(-31.028 -143.574)" fill="#4972ff"/>
  <path id="Path_12" data-name="Path 12" d="M387.139,121.9a33.892,33.892,0,0,1,1.931,5.446,1.508,1.508,0,0,0,1.463,1.116,1.621,1.621,0,0,0,.377-.045,1.509,1.509,0,0,0,1.072-1.84,37.288,37.288,0,0,0-2.1-5.913,37.983,37.983,0,0,0-4.918-8.009,1.555,1.555,0,0,0-2.126-.241,1.52,1.52,0,0,0-.558,1.01,1.477,1.477,0,0,0,.317,1.086v.03a33.958,33.958,0,0,1,4.54,7.361Zm0,0" transform="translate(-310.199 -90.964)" fill="#4972ff"/>
  <path id="Path_13" data-name="Path 13" d="M400.294,262.235a1.494,1.494,0,0,0-1.719,1.252,34.377,34.377,0,0,1-5.144,13.394,1.51,1.51,0,0,0,2.534,1.644,37.432,37.432,0,0,0,2.956-5.535,36.745,36.745,0,0,0,2.624-9.035A1.508,1.508,0,0,0,400.294,262.235Zm0,0" transform="translate(-319.056 -212.777)" fill="#4972ff"/>
  <path id="Path_14" data-name="Path 14" d="M304,440h3.017v3.017H304Zm0,0" transform="translate(-246.683 -357.042)" fill="#4972ff"/>
  <path id="Path_15" data-name="Path 15" d="M280,440h3.017v3.017H280Zm0,0" transform="translate(-227.208 -357.042)" fill="#4972ff"/>
  <path id="Path_16" data-name="Path 16" d="M304,416h3.017v3.017H304Zm0,0" transform="translate(-246.683 -337.567)" fill="#4972ff"/>
  <path id="Path_17" data-name="Path 17" d="M199.417,291.97a6.968,6.968,0,0,0-5.795-4.027,7.967,7.967,0,0,0-6.19,2.282,7.93,7.93,0,0,0-6.184-2.282,6.969,6.969,0,0,0-5.795,4.027c-1.418,4.129,3.733,11.173,11.248,15.385a1.507,1.507,0,0,0,1.475,0C195.684,303.142,200.835,296.1,199.417,291.97ZM187.432,304.3c-6.723-4.029-9.744-9.562-9.132-11.341a4.074,4.074,0,0,1,3.249-2,3.769,3.769,0,0,1,.409-.021,5.94,5.94,0,0,1,4.23,2.4,1.521,1.521,0,0,0,2.475,0,5.691,5.691,0,0,1,4.65-2.379,4.072,4.072,0,0,1,3.255,2.008c.606,1.775-2.415,7.307-9.138,11.337Zm0,0" transform="translate(-142.182 -233.635)" fill="#4972ff"/>
  <path id="Path_18" data-name="Path 18" d="M24,56h6.033v3.017H24Zm0,0" transform="translate(-19.475 -45.442)" fill="#4972ff"/>
  <path id="Path_19" data-name="Path 19" d="M64,56h9.05v3.017H64Zm0,0" transform="translate(-51.933 -45.442)" fill="#4972ff"/>
  <path id="Path_20" data-name="Path 20" d="M120,56h3.017v3.017H120Zm0,0" transform="translate(-97.375 -45.442)" fill="#4972ff"/>
  <path id="Path_21" data-name="Path 21" d="M24,80H40.592v3.017H24Zm0,0" transform="translate(-19.475 -64.917)" fill="#4972ff"/>
  <path id="Path_22" data-name="Path 22" d="M120,80h3.017v3.017H120Zm0,0" transform="translate(-97.375 -64.917)" fill="#4972ff"/>
  <path id="Path_23" data-name="Path 23" d="M80,104H90.558v3.017H80Zm0,0" transform="translate(-64.917 -84.392)" fill="#4972ff"/>
  <path id="Path_24" data-name="Path 24" d="M24,104h9.05v3.017H24Zm0,0" transform="translate(-19.475 -84.392)" fill="#4972ff"/>
  <path id="Path_25" data-name="Path 25" d="M328,24h13.575v3.017H328Zm0,0" transform="translate(-266.158 -19.475)" fill="#4972ff"/>
  <path id="Path_26" data-name="Path 26" d="M408,24h9.05v3.017H408Zm0,0" transform="translate(-331.075 -19.475)" fill="#4972ff"/>
  <path id="Path_27" data-name="Path 27" d="M328,48h24.133v3.017H328Zm0,0" transform="translate(-266.158 -38.95)" fill="#4972ff"/>
  <path id="Path_28" data-name="Path 28" d="M328,72h9.05v3.017H328Zm0,0" transform="translate(-266.158 -58.425)" fill="#4972ff"/>
  <path id="Path_29" data-name="Path 29" d="M384,72h6.033v3.017H384Zm0,0" transform="translate(-311.6 -58.425)" fill="#4972ff"/>
  <path id="Path_30" data-name="Path 30" d="M424,72h6.033v3.017H424Zm0,0" transform="translate(-344.058 -58.425)" fill="#4972ff"/>
  <path id="Path_31" data-name="Path 31" d="M427.017,233.508A1.508,1.508,0,1,1,425.508,232,1.508,1.508,0,0,1,427.017,233.508Zm0,0" transform="translate(-344.058 -188.258)" fill="#4972ff"/>
  <path id="Path_32" data-name="Path 32" d="M363.017,377.508A1.508,1.508,0,1,1,361.508,376,1.508,1.508,0,0,1,363.017,377.508Zm0,0" transform="translate(-292.125 -305.108)" fill="#4972ff"/>
  <path id="Path_33" data-name="Path 33" d="M51.017,289.508A1.508,1.508,0,1,1,49.508,288,1.508,1.508,0,0,1,51.017,289.508Zm0,0" transform="translate(-38.95 -233.7)" fill="#4972ff"/>
  <path id="Path_34" data-name="Path 34" d="M283.017,41.508A1.508,1.508,0,1,1,281.508,40,1.508,1.508,0,0,1,283.017,41.508Zm0,0" transform="translate(-227.208 -32.458)" fill="#4972ff"/>
</svg>
