<svg xmlns="http://www.w3.org/2000/svg" width="75.881" height="75.878" viewBox="0 0 75.881 75.878">
  <g id="customer" transform="translate(0 -0.013)">
    <g id="Group_5" data-name="Group 5" transform="translate(0 34.982)">
      <g id="Group_4" data-name="Group 4">
        <path id="Path_41" data-name="Path 41" d="M73.508,238.424a6.666,6.666,0,0,0-9.179.554l-6.534,7.014a6.681,6.681,0,0,0-6.369-4.692H39.765c-.885,0-1.181-.338-2.718-1.522a15.594,15.594,0,0,0-20.5.049L12.258,243.6a6.642,6.642,0,0,0-6.113-.077L1.229,245.98a2.225,2.225,0,0,0-.994,2.983l13.338,26.675a2.225,2.225,0,0,0,2.983.994l4.916-2.459a6.664,6.664,0,0,0,3.684-6.2H51.425a15.635,15.635,0,0,0,12.449-6.224l10.672-14.23A6.651,6.651,0,0,0,73.508,238.424ZM19.483,270.2l-2.927,1.464-11.35-22.7L8.134,247.5a2.222,2.222,0,0,1,2.982.994l9.362,18.723A2.223,2.223,0,0,1,19.483,270.2Zm51.506-25.345-10.672,14.23a11.166,11.166,0,0,1-8.892,4.446H23.6l-8.33-16.662,4.207-3.7a11.142,11.142,0,0,1,14.686,0c2.466,2.171,4,2.582,5.6,2.582h11.66a2.223,2.223,0,0,1,0,4.446H40.072a2.223,2.223,0,1,0,0,4.446H52.914a6.687,6.687,0,0,0,4.88-2.124l9.787-10.506a2.223,2.223,0,0,1,3.407,2.845Z" transform="translate(0 -235.959)" fill="#4972ff"/>
      </g>
    </g>
    <g id="Group_7" data-name="Group 7" transform="translate(26.824 0.013)">
      <g id="Group_6" data-name="Group 6" transform="translate(0 0)">
        <path id="Path_42" data-name="Path 42" d="M200.912,15.182a8.856,8.856,0,0,0,2.46-6.129A9.013,9.013,0,0,0,194.48.013a9.16,9.16,0,0,0-9.04,9.04,8.727,8.727,0,0,0,2.542,6.147,13.561,13.561,0,0,0-6.987,11.785v2.223a2.224,2.224,0,0,0,2.223,2.223h22.378a2.224,2.224,0,0,0,2.223-2.223V26.985A13.551,13.551,0,0,0,200.912,15.182ZM194.48,4.459a4.583,4.583,0,0,1,4.446,4.594A4.451,4.451,0,0,1,194.48,13.5a4.583,4.583,0,0,1-4.594-4.446A4.715,4.715,0,0,1,194.48,4.459Zm-9.04,22.526a9.16,9.16,0,0,1,9.04-9.04,8.977,8.977,0,0,1,8.892,9.04Z" transform="translate(-180.994 -0.013)" fill="#4972ff"/>
      </g>
    </g>
  </g>
</svg>
