<svg xmlns="http://www.w3.org/2000/svg" width="83" height="74.968" viewBox="0 0 83 74.968">
  <g id="online-course" transform="translate(-1 -4)">
    <path id="Path_35" data-name="Path 35" d="M73.887,28H23.016A4.016,4.016,0,0,0,19,32.016V66.823a4.016,4.016,0,0,0,4.016,4.016H73.887A4.016,4.016,0,0,0,77.9,66.823V32.016A4.016,4.016,0,0,0,73.887,28ZM55.165,51.829,43.1,58.79a2.677,2.677,0,0,1-4.016-2.319V42.392a2.677,2.677,0,0,1,4.039-2.307l12.068,7.121a2.677,2.677,0,0,1-.023,4.623Z" transform="translate(6.097 8.129)" fill="#f3c729"/>
    <path id="Path_36" data-name="Path 36" d="M63.919,4H5.016A4.016,4.016,0,0,0,1,8.016V58.887A4.016,4.016,0,0,0,5.016,62.9h58.9a4.016,4.016,0,0,0,4.016-4.016V8.016A4.016,4.016,0,0,0,63.919,4ZM5.016,6.677h58.9a1.339,1.339,0,0,1,1.339,1.339v4.016H3.677V8.016A1.339,1.339,0,0,1,5.016,6.677Zm10.308,32.8a4.685,4.685,0,1,1,4.685,4.685,4.685,4.685,0,0,1-4.685-4.685ZM28.31,60.226H11.71V55.139a8.3,8.3,0,0,1,16.6,0Zm35.61,0H30.987V55.139A10.977,10.977,0,0,0,24.635,45.2a7.363,7.363,0,1,0-9.249,0,10.977,10.977,0,0,0-6.354,9.941v5.087H5.016a1.339,1.339,0,0,1-1.339-1.339V14.71H65.258V58.887A1.339,1.339,0,0,1,63.919,60.226ZM58.565,32.113a1.339,1.339,0,0,1-1.339,1.339H37.145a1.339,1.339,0,0,1,0-2.677H57.226A1.339,1.339,0,0,1,58.565,32.113Zm0-6.694a1.339,1.339,0,0,1-1.339,1.339H37.145a1.339,1.339,0,0,1,0-2.677H57.226A1.339,1.339,0,0,1,58.565,25.419Zm0,13.387a1.339,1.339,0,0,1-1.339,1.339H37.145a1.339,1.339,0,0,1,0-2.677H57.226A1.339,1.339,0,0,1,58.565,38.806ZM45.177,45.5a1.339,1.339,0,0,1-1.339,1.339H37.145a1.339,1.339,0,0,1,0-2.677h6.694A1.339,1.339,0,0,1,45.177,45.5Zm13.387,0a1.339,1.339,0,0,1-1.339,1.339H50.532a1.339,1.339,0,0,1,0-2.677h6.694A1.339,1.339,0,0,1,58.565,45.5Z" fill="#151a6a"/>
  </g>
</svg>
